<?xml version="1.0" encoding="UTF-8"?><svg id="a" xmlns="http://www.w3.org/2000/svg" viewBox="0 0 150 150"><defs><style>.d{fill:#fa6432;fill-rule:evenodd;}.e{fill:none;}</style></defs><path class="e" d="M0,0H150V150H0V0Z"/><path id="b" class="d" d="M57.2,36.22c-2.41-6.61-4.38-13.26-5.36-20.21-.29-1.94-.25-2,1.62-2.65,3.77-1.31,7.62-2.34,11.57-2.95,1.83-.28,1.92-.22,2.17,1.65,1.04,7.89,3.26,15.44,6.62,22.65,.38,.82,.59,2.15,1.46,2.19,1.11,.05,1.26-1.36,1.66-2.21,3.35-7.13,5.55-14.6,6.56-22.42,.27-2.11,.33-2.16,2.46-1.85,3.96,.59,7.78,1.71,11.56,2.99,1.72,.59,1.69,.66,1.42,2.53-.9,6.25-2.53,12.31-4.67,18.24-.24,.67-.98,1.46-.26,2.09,.57,.5,1.29-.15,1.9-.4,6.45-2.67,12.07-6.64,16.97-11.6q1.74-1.72,3.68-.1c2.89,2.41,5.66,4.94,8.09,7.82,1.22,1.46,1.21,1.48-.05,2.81-9.64,10.14-21.57,16.63-35.2,19.67-1.4,.42-1.5,.73-.43,1.82,3.55,3.63,7.48,6.81,11.7,9.62,1.32,.88,1.37,.84,2.9-.6,6.5-6.08,13.83-10.9,21.92-14.58,2.37-1.08,4.81-2,7.26-2.9,1.66-.61,1.93-.47,2.61,1.18,1.53,3.69,2.84,7.45,3.67,11.36,.38,1.76,.35,1.84-1.44,2.48-3.91,1.38-7.68,3.09-11.27,5.17-2.32,1.35-4.56,2.83-6.71,4.43-.6,.44-1.55,.8-1.45,1.63,.12,1.02,1.28,.95,2.02,1.19,5.5,1.74,11.13,2.83,16.89,3.28,4.33,.33,3.49,.2,3.15,3.87-.32,3.44-.99,6.83-1.96,10.14-.52,1.77-.57,1.84-2.4,1.7-22.06-1.63-42.83-11.44-58.39-27.1-2.21-2.2-1.8-2.45-4.18-.06-11.99,12.09-26.24,20.29-42.71,24.59-4.98,1.3-10.04,2.16-15.17,2.55-2.37,.18-2.33,.12-3-2.09-1.07-3.54-1.6-7.18-2.01-10.84-.28-2.44-.23-2.52,2.35-2.7,5.61-.39,11.11-1.32,16.49-2.93,.95-.29,1.9-.6,2.84-.93,.81-.29,.9-.82,.27-1.36-5.7-4.56-12.18-8.03-19.05-10.49-2.03-.71-2.05-.74-1.57-2.77,.88-3.74,2.01-7.4,3.57-10.91,.87-1.96,.9-2.01,2.89-1.32,10.82,3.72,20.74,9.8,29.16,17.53,1.47,1.33,1.46,1.3,3.09,.22,4.2-2.83,8.13-6.04,11.6-9.73,1.03-1.24-.9-1.55-1.76-1.74-13.5-3.1-25.07-9.78-34.6-19.81-.57-.58-.68-1.16-.1-1.81,3.01-3.39,6.23-6.55,9.8-9.36,.74-.58,1.24-.24,1.77,.31,5.17,5.46,11.41,9.9,18.42,12.66,.41,.16,.83,.42,1.61,.04"/><path id="c" class="d" d="M75.16,140.03c-1.91,0-3.83,.08-5.74-.02-1.69-.09-1.93-.41-1.94-2.14-.02-5.82-.07-11.65,.03-17.47,.03-1.88-.51-3.35-1.66-4.82-6.35-8.16-12.62-16.38-18.9-24.59-1.61-2.1-1.58-2.11,.87-3.29,3.18-1.53,6.29-3.17,9.28-5.05,2.26-1.42,2.28-1.39,3.84,.65,4.24,5.53,8.48,11.07,12.72,16.59,1.7,2.21,1.74,2.21,3.39,.06,4.33-5.66,8.66-11.31,13-16.97,1.33-1.73,1.35-1.75,3.12-.64,3.38,2.13,6.9,3.98,10.5,5.68,1.57,.74,1.61,.98,.56,2.36-6.51,8.52-13,17.06-19.58,25.53-1.01,1.3-1.45,2.58-1.43,4.2,.06,5.82,.03,11.65,.02,17.47,0,2.1-.07,2.28-2.11,2.41-1.98,.13-3.98,.03-5.97,.03h0"/></svg>